<?xml version="1.0" standalone="yes"?>
<svg xmlns="http://www.w3.org/2000/svg" width="2200" height="660">
<path style="fill:#fdfdfd; stroke:none;" d="M0 0L0 660L2200 660L2200 0L0 0z"/>
<path style="fill:#050505; stroke:none;" d="M167.213 77.7423C163.8 79.2805 162.167 83.9498 160.421 87L147.15 110C130.309 139.338 113.558 168.74 96.5756 198C79.1979 227.942 61.8371 257.909 44.7191 288C40.15 296.032 35.4303 303.975 30.8495 312C29.0246 315.197 25.787 319.167 25.787 323C25.787 326.539 28.6036 330.05 30.2809 333C34.0877 339.696 38.0156 346.32 41.8503 353C56.238 378.062 70.664 403.139 85.3966 428C105.402 461.759 124.124 496.285 144.201 530C149.307 538.575 154.274 547.283 159.14 556C161.074 559.465 162.872 564.78 166.379 566.972C170.995 569.857 180.71 568 186 568L234 568L384 568L428 568C433.532 568 441.715 569.506 446.896 567.397C450.598 565.889 452.43 561.246 454.281 558C458.49 550.619 462.853 543.301 467.201 536C485.328 505.562 502.642 474.64 520.424 444C537.419 414.717 554.365 385.405 571.15 356C575.552 348.29 580.12 340.678 584.576 333C586.427 329.809 589.551 325.841 589.551 322C589.551 318.458 586.841 314.949 585.15 312L574.15 293C560.34 268.942 546.218 245.066 532.421 221C513.471 187.946 494.142 155.103 475.281 122L458.15 92C455.75 87.7917 453.601 81.6115 449.671 78.6034C445.308 75.2629 436.211 77 431 77L383 77L230 77L186 77C180.549 77 172.265 75.4654 167.213 77.7423z"/>
<path style="fill:#fdfdfd; stroke:none;" d="M181.185 105.028C178.27 106.694 176.748 110.21 175.15 113L165.281 130C153.106 151.369 140.692 172.602 128.576 194C111.506 224.146 93.8018 253.947 76.5725 284L61.5787 310C59.5814 313.484 55.9516 317.887 55.6427 322C55.269 326.977 60.5643 332.941 63 337C70.1509 348.917 76.9728 361.018 84.0108 373C108.03 413.892 131.215 455.334 155.6 496C161.751 506.257 167.796 516.609 173.719 527C176.144 531.253 178.834 538.416 183.21 540.972C186.426 542.851 191.425 542 195 542L223 542L324 542L402 542L423 542C426.014 542 429.972 542.609 432.671 540.972C436.713 538.522 439.043 531.93 441.4 528C448.128 516.781 454.482 505.342 461 494C484.195 453.641 507.666 413.437 530.719 373C537.587 360.952 544.681 349.032 551.579 337C553.929 332.9 559.034 326.971 558.449 322C557.936 317.64 554.168 312.731 551.988 309C547.137 300.694 542.363 292.346 537.579 284C520.333 253.919 502.639 224.096 485.421 194L448.85 130C445.603 124.313 442.314 118.642 438.989 113C437.361 110.237 435.71 106.681 432.815 105.028C429.339 103.042 423.854 104 420 104L392 104L289 104L212 104L191 104C187.906 104 183.986 103.428 181.185 105.028z"/>
<path style="fill:#050505; stroke:none;" d="M742 118.464C710.015 121.265 681.891 138.657 670.698 170C652.701 220.396 693.612 280.105 749 274.83C782.591 271.631 811.944 249.526 820.522 216C832.807 167.982 793.814 113.926 742 118.464z"/>
<path style="fill:#fdfdfd; stroke:none;" d="M740 128.424C710.984 132.234 686.876 149.73 679.156 179C667.807 222.028 703.775 270.243 750 264.715C783.939 260.656 809.557 234.369 811.911 200C814.511 162.027 779.406 123.25 740 128.424z"/>
<path style="fill:#050505; stroke:none;" d="M195.529 130.028C192.147 132.222 190.205 137.634 188.201 141C182.485 150.598 177.092 160.389 171.397 170C150.022 206.069 129.622 242.737 108.576 279C102.372 289.688 96.0029 300.283 89.8503 311C87.6248 314.877 82.8379 320.384 82.8364 325C82.8349 329.625 87.5171 335.168 89.7994 339C96.1258 349.623 102.369 360.306 108.576 371C128.675 405.632 148.92 440.195 168.719 475C174.613 485.361 180.526 495.745 186.603 506C188.697 509.534 190.846 515.712 194.39 517.972C197.011 519.643 201.045 519 204 519L227 519L314 519L391 519L411 519C413.837 519 417.891 519.68 420.366 517.972C423.876 515.55 425.904 509.588 428.011 506C433.867 496.029 439.67 486.032 445.421 476C465.732 440.572 486.52 405.418 506.85 370C512.99 359.305 519.234 348.666 525.424 338C527.657 334.153 532.598 328.684 532.226 324C531.925 320.204 528.552 316.222 526.719 313C522.34 305.302 517.87 297.659 513.424 290C498.166 263.71 482.918 237.399 467.85 211C456.776 191.599 445.344 172.406 434.281 153L425 137C423.604 134.583 422.293 131.504 419.787 130.028C416.804 128.271 412.315 129 409 129L386 129L300 129L224 129L204 129C201.336 129.001 197.885 128.5 195.529 130.028z"/>
<path style="fill:#fdfdfd; stroke:none;" d="M207.21 150.028C201.717 153.237 197.945 163.609 194.85 169C185.484 185.317 176.428 201.833 166.799 218C152.039 242.785 138.056 268.05 123.576 293C119.516 299.996 115.444 306.982 111.421 314C109.746 316.923 106.868 320.527 106.693 324C106.471 328.398 110.658 333.404 112.799 337C118.327 346.281 123.772 355.632 129.15 365C147.187 396.42 165.805 427.509 183.719 459C189.055 468.38 194.524 477.694 199.989 487C202.002 490.427 203.884 495.788 207.379 497.972C210.029 499.629 214.023 499 217 499L239 499L320 499L383 499C389.49 499 402.012 501.398 407.671 497.972C411.242 495.811 413.293 490.494 415.281 487C420.028 478.655 424.709 470.259 429.603 462C448.636 429.882 466.57 397.119 485.603 365C491.117 355.696 496.611 346.376 502 337C504.108 333.332 508.129 328.479 507.394 324C506.759 320.138 503.754 316.336 501.85 313C497.657 305.654 493.529 298.267 489.201 291C475.622 268.199 462.62 245.023 449.421 222C439.482 204.664 429.607 187.284 419.576 170C416.358 164.456 412.407 153.338 406.787 150.028C404.031 148.404 400.061 149 397 149L375 149L294 149L232 149C225.39 149 213.025 146.63 207.21 150.028z"/>
<path style="fill:#050505; stroke:none;" d="M621 152L621 507L633 507L633 152L621 152M713 154L713 238L727 238L727 216C727.001 213.114 726.348 208.859 728.603 206.603C731.397 203.81 738.408 204.842 742 205.09C745.576 205.336 749.652 205.82 753 207.147C765.9 212.261 766 226.354 766 238L780 238C777.801 226.157 781.083 213.015 769.96 204.637C767.276 202.616 764.079 201.282 761 200C766.062 197.985 770.999 196.308 774.61 191.957C783.538 181.196 780.375 163.929 767.996 157.403C760.805 153.611 752.862 154 745 154L713 154z"/>
<path style="fill:#fdfdfd; stroke:none;" d="M727 164L727 194C736.01 194 749.959 196.613 757.985 191.91C766.588 186.869 768.131 171.712 758.957 166.417C750.383 161.47 736.562 164 727 164z"/>
<path style="fill:#050505; stroke:none;" d="M249 190.529C235.473 193.655 227.633 208.378 225.261 221C221.833 239.239 224.224 260.346 234.749 276C243.131 288.465 256.81 296.519 272 292.76C285.27 289.477 293.302 276.521 296.522 264C301.441 244.87 297.299 221.829 285.522 206C276.99 194.534 263.576 187.161 249 190.529M352 193.465C322.228 198.832 310.513 237.845 314.921 264C318.076 282.721 331.618 298.353 352 294.532C380.749 289.144 393.579 249.524 389.561 224C386.576 205.039 372.296 189.805 352 193.465z"/>
<path style="fill:#fdfdfd; stroke:none;" d="M253.015 208.653C246.864 210.63 244.581 217.289 243.236 223C240.049 236.532 242.046 251.861 248.796 264C252.456 270.581 259.748 277.864 267.996 275.142C274.528 272.987 277.61 266.243 278.985 260C281.857 246.949 279.474 231.71 273.1 220C269.042 212.547 262.252 205.683 253.015 208.653M356 210.561C335.581 212.738 332.608 242.416 333.015 258C333.238 266.558 337.606 278.222 348 277.358C354.383 276.827 359.091 272.003 362.48 266.999C369.63 256.443 373.549 241.73 371.561 229C370.264 220.696 366.593 209.432 356 210.561z"/>
<path style="fill:#050505; stroke:none;" d="M176 268.518C158.1 272.337 151.934 290.582 154.3 307C157.651 330.257 181.084 354.655 206 349.331C224.455 345.388 231.568 325.987 228.192 309C223.614 285.968 201.062 263.171 176 268.518M424 268.465C403.256 272.205 386.603 293.365 385.09 314C383.578 334.628 396.286 353.624 419 349.535C439.678 345.814 455.777 326.455 458.7 306C459.735 298.756 459.721 289.741 456.647 283C450.895 270.385 436.866 266.145 424 268.465z"/>
<path style="fill:#fdfdfd; stroke:none;" d="M181.001 285.548C171.848 287.555 171.031 297.321 172.669 305C175.347 317.55 187.963 335.73 202.996 331.566C210.909 329.374 211.768 319.736 210.331 313C207.703 300.678 196.042 282.249 181.001 285.548M424 286.638C412.016 290.097 404.42 303.227 403.174 315C402.016 325.935 408.379 334.569 420 331.211C432.215 327.681 439.821 313.846 441.395 302C442.888 290.766 435.196 283.406 424 286.638z"/>
<path style="fill:#050505; stroke:none;" d="M1585 388L1540 388C1539.84 395.528 1538.04 403.122 1535 410C1532.5 404.02 1528.99 398.501 1525.57 393C1523.96 390.401 1521.15 387.295 1521.81 384C1522.97 378.248 1529.81 371.954 1532.95 367C1541.39 353.662 1548.02 338.108 1544.32 322C1534.8 280.513 1471.96 284.395 1451.92 314C1441.82 328.913 1445.82 347.48 1454.45 362C1456.91 366.129 1459.7 370.079 1462.47 374C1463.68 375.716 1465.54 377.699 1465.23 379.985C1464.82 383.074 1461.12 385.184 1459.09 387.17C1455.51 390.662 1452.41 394.808 1449.7 399C1441.63 411.491 1439.06 426.319 1440.09 441C1442.37 473.538 1470.84 496.664 1503 492.714C1509.81 491.877 1516.7 490.334 1523 487.56C1526.16 486.169 1530.4 482.332 1534 482.846C1538.32 483.461 1541.97 488.808 1546 490.647C1555.97 495.193 1577.6 495.198 1585.68 486.61C1589.39 482.663 1586.22 477.833 1583.99 474C1580.35 467.751 1576.5 461.754 1572.12 456C1570.14 453.401 1566.89 450.407 1566.49 447C1565.83 441.3 1572.27 433.206 1574.4 428C1579.72 414.961 1583.23 401.975 1585 388M1602 300L1602 492L1649 492L1649 420C1666.25 420 1682.36 418.838 1697 408.56C1726.25 388.027 1733.12 343.911 1706.83 318.286C1690.02 301.904 1664.05 295.142 1641 296.04C1627.92 296.55 1615.03 298.972 1602 300M696 300C696 350.609 694.694 401.411 696.015 452C696.143 456.917 698.233 461.193 698.816 466C699.842 474.463 699 483.477 699 492L751 492C757.093 492 766.668 493.801 771.996 490.397C775.577 488.109 778.25 484.234 780.916 481C787.526 472.982 793.527 464.273 798.244 455C814.075 423.879 816.675 384.632 807.14 351C802.431 334.388 793.33 317.052 779 306.789C768.46 299.24 757.314 300 745 300L696 300M298 315.424C288.856 316.64 279.621 317.971 271 321.453C235.216 335.905 212.103 370.444 206.87 408C204.252 426.786 205.376 450.429 221.015 463.671C240.406 480.091 264.48 467.888 283 457.011C288.442 453.815 297.556 446.298 304 446.298C310.486 446.298 319.494 453.835 325 457C339.464 465.313 353.689 473.256 371 470.699C402.38 466.064 405.606 423.23 400.112 399C391.156 359.499 363.767 325.827 323 317.211C314.916 315.502 306.234 314.33 298 315.424z"/>
<path style="fill:#fdfdfd; stroke:none;" d="M1495.02 321.786C1486.2 324.692 1486.24 337.915 1488.44 345C1489.56 348.567 1492.28 354.232 1496.96 353.11C1505.54 351.052 1506.49 334.606 1504.44 328.004C1503.21 324.031 1499.49 320.311 1495.02 321.786M300 333.424C287.344 335.071 276.08 337.714 265 344.464C243.04 357.84 227.933 384.68 225.05 410C223.551 423.168 222.353 441.347 234.015 450.606C239.731 455.143 247.502 454.645 254 452.184C266.63 447.402 278.02 438.94 290 432.742C294.12 430.609 299.126 426.295 304 426.603C308.398 426.882 313.144 430.306 317 432.248C326.861 437.213 336.236 443.08 346 448.219C352.022 451.389 359.007 454.656 366 453.695C374.415 452.539 379.62 445.745 381.957 438C385.724 425.516 384.39 411.412 381.116 399C371.756 363.516 340.148 328.202 300 333.424M1641 339L1641 381C1652.02 381 1666.19 383.17 1676 377.005C1688.31 369.269 1685.4 350.704 1673.99 343.61C1664.22 337.539 1651.96 339 1641 339z"/>
<path style="fill:#050505; stroke:none;" d="M822 449C822 455.199 821.959 461.078 824.09 467C833.011 491.784 859.926 497 883 497C898.696 497 914.856 494.365 925.815 481.996C938.65 467.51 941.879 441.334 928.532 426.09C922.601 419.316 913.539 415.54 905 413.374C893.822 410.539 867.088 410.224 867.088 394C867.088 383.9 879.333 377.756 888 381.653C891.639 383.289 894.692 386.427 896.428 390C897.473 392.151 897.569 395.436 899.589 396.972C901.732 398.602 905.488 397.999 908 398L929 398C931.673 397.995 935.989 398.63 937.393 395.682C938.729 392.876 937.321 388.927 937.086 386C936.026 372.822 931.045 361.933 919 355.313C911.984 351.458 903.89 349.839 896 348.95C876.603 346.765 851.294 346.836 836.174 361.301C831.276 365.986 827.952 372.443 826.428 379C825.142 384.535 824.484 390.336 825.3 396C828.457 417.908 846.534 426.983 866 431.873C875.273 434.203 887.147 435.41 893.772 443.043C899.625 449.788 896.523 458.678 888.999 462.547C883.323 465.466 875.245 465.049 870.015 461.347C865.974 458.486 864.658 451.591 860.582 449.603C857.457 448.08 852.387 449 849 449L822 449M2091 450L2050 450C2050.27 456.355 2051.36 463.126 2053.88 469C2064.32 493.299 2094.53 498.809 2118 497.089C2137.17 495.684 2155.87 488.558 2162.91 469C2168.04 454.746 2167.39 436.223 2155.96 425.093C2149.98 419.271 2141.95 415.985 2134 413.884C2122.83 410.932 2103.26 410.888 2097.57 398.999C2093.12 389.688 2101.45 380.35 2111 380.347C2120.6 380.344 2127.21 387.987 2128 397L2168 397C2167.99 388.236 2167.16 378.891 2163.01 371C2151.72 349.474 2121.31 346.944 2100 348.925C2083.33 350.475 2064.56 356.161 2057.46 373C2055.01 378.818 2053.98 384.722 2054 391C2054.08 416.532 2073.97 426.893 2096 432.116C2106.09 434.508 2120.5 435.165 2125.41 446C2128.78 453.43 2122.43 462.133 2115 463.656C2104.21 465.869 2094.18 460.699 2091 450M1022 441C1019.91 454.965 1005.33 464.709 993.043 454.606C988.087 450.53 986.603 445.065 985.729 439C983.65 424.579 982.234 395.655 1002 393.185C1010.09 392.174 1017.49 395.433 1021.08 403C1022.34 405.656 1022.15 411.174 1024.6 412.933C1026.89 414.57 1031.39 413.079 1034 413.015C1042.32 412.811 1050.67 413 1059 413C1059 396.68 1060.76 377.023 1048.81 364.04C1035.84 349.942 1011.56 350.159 994 351.83C988.935 352.312 984.033 351.984 979 353.004C970.419 354.742 962.095 357.436 956.916 365.004C951.645 372.706 951.586 381.156 950.424 390C949.054 400.438 950 411.48 950 422C950 440.124 947.006 462.326 958.044 478C970.754 496.049 993.229 496 1013 496C1023.86 496 1035.9 495.039 1044.99 488.363C1055.95 480.306 1055.86 467.095 1057.29 455C1057.7 451.471 1059.73 443.671 1056.4 441.028C1054.12 439.228 1049.69 440 1047 440C1038.61 439.999 1030.34 440.931 1022 441M1270 414L1295 414C1297.69 414 1302.12 414.772 1304.4 412.972C1308.15 409.999 1305.36 400.956 1305.09 397C1304 381.121 1301.34 363.985 1285 356.519C1268.82 349.128 1247.18 351.532 1230 352.914C1221.18 353.624 1212.48 355.379 1206.1 362.043C1198.49 370.004 1197.93 379.749 1196.71 390C1194.51 408.596 1195.64 428.38 1196.91 447C1197.73 459.02 1198.44 469.86 1205.93 479.996C1219.15 497.903 1250.2 496.854 1270 494.282C1277.94 493.251 1285.69 492.266 1291.99 486.787C1301.5 478.505 1302.52 466.751 1303.04 455C1303.2 451.405 1304.41 447.658 1303.85 444.059C1303.25 440.268 1300.27 440.066 1297 440.005C1289.32 439.859 1278.52 438.141 1271.15 440.318C1266.77 441.609 1266.45 449.592 1263.61 452.895C1255.54 462.26 1239.68 458.438 1234.57 448C1231.97 442.693 1232 436.753 1232 431C1232 420.377 1229.92 406.838 1237.53 398.185C1244.56 390.199 1256.75 390.209 1263.79 398.044C1267.74 402.446 1269.23 408.28 1270 414M1351 352.425C1340.8 353.813 1331 356.115 1324.64 365.001C1318.11 374.121 1317 387.143 1317 398L1317 434C1317 448.95 1317.4 464.217 1326.22 477C1337.5 493.358 1357.01 494 1375 494C1383.08 494 1390.99 493.954 1399 492.704C1432.4 487.491 1427 445.02 1427 420C1427 412.581 1426.87 405.374 1426.17 398C1425.17 387.492 1425.82 376.359 1419.87 367C1409.35 350.454 1387.06 352 1370 352C1363.71 352 1357.25 351.575 1351 352.425M1074 354C1074 380.667 1074.04 407.333 1074 434C1073.98 446.63 1071.1 459.541 1074.78 472C1081.04 493.139 1106.11 495.831 1124 488.525C1131.34 485.529 1136.96 479.903 1143 475C1143 479.087 1141.31 488.082 1144.03 491.382C1145.95 493.714 1150.45 492.15 1153 492.039C1161.64 491.665 1170.36 492 1179 492L1179 353C1167.72 353 1156.26 353.59 1145 353C1143.39 358.436 1144 364.36 1144 370L1144 397L1144 423C1144 428.507 1144.32 433.998 1141.58 438.999C1134.4 452.144 1115.56 450.105 1110.79 436C1108.31 428.658 1109 420.618 1109 413L1109 377L1109 361C1108.99 359.008 1109.3 356.281 1107.97 354.603C1106.14 352.288 1101.57 352.914 1099 353.09C1090.62 353.659 1082.42 354 1074 354M1809 476L1809 493L1848 493L1848 356L1809 356L1809 368C1788.44 347.921 1755.44 354.87 1742.26 380C1735.01 393.815 1734 407.702 1734 423C1734 439.3 1735.86 456.218 1743.27 471C1752.1 488.604 1771.87 498.886 1791 490.662C1798.64 487.378 1803.64 482.138 1809 476M1864 356C1864.77 373.814 1870.75 392.6 1874.58 410C1880.62 437.532 1885.63 465.332 1891 493L1927 493C1930.69 493 1938.21 494.42 1941.26 491.972C1944.59 489.295 1944.42 479.973 1945.08 476C1947.52 461.271 1951.88 445.96 1952 431C1954.99 438.087 1955.35 446.456 1956.8 454C1959.3 466.944 1962.34 479.92 1964 493L1998 493C2001.65 493 2008.34 494.263 2011.44 491.972C2014.08 490.014 2014.2 484.949 2014.88 482C2016.8 473.671 2018.73 465.346 2020.58 457C2025.16 436.259 2030.22 415.608 2035.37 395C2038.53 382.36 2042.97 369.001 2044 356L2010 356C2008 371.458 2003.78 386.793 2000.42 402C1996.74 418.672 1993.63 435.559 1989 452C1983.71 437.977 1982.23 421.72 1979.58 407C1976.58 390.364 1971.73 372.891 1971 356L1949 356C1946.49 356.001 1942.73 355.396 1940.59 357.028C1938.62 358.531 1938.47 361.765 1938.08 364C1937.22 369.019 1936.2 374.006 1935.2 379L1925.8 426C1924.09 434.561 1923.55 442.549 1916 448C1915.67 440.281 1913.57 432.601 1912.25 425C1909.64 409.999 1906.93 395.019 1904.41 380C1903.52 374.657 1902.59 369.329 1901.61 364C1901.22 361.828 1901.3 358.526 1899.4 357.028C1896.94 355.093 1891.92 356 1889 356L1864 356z"/>
<path style="fill:#fdfdfd; stroke:none;" d="M735 357L735 432C744.077 432 755.198 433.9 762.96 428.2C767.883 424.585 770.792 418.686 772.64 413C777.607 397.721 776.152 373.289 762.985 362.34C755.334 355.978 744.324 357 735 357M1370 391.471C1355.4 394.058 1354 408.761 1354 421C1354 433.8 1351.89 455.912 1370 456.957C1372.59 457.106 1375.43 457.192 1378 456.786C1385.16 455.657 1389.48 449.634 1391.1 443C1392.23 438.4 1392 433.698 1392 429C1392 415.271 1394.39 395.618 1377 391.681C1374.66 391.152 1372.36 391.053 1370 391.471M1787 392.468C1756.4 398.251 1760.74 460.88 1795 454.191C1799.75 453.264 1805.53 451.565 1807.97 446.957C1810.82 441.591 1809 431.943 1809 426L1809 407C1809 404.143 1809.43 400.703 1807.97 398.108C1805.64 393.947 1799.4 392.442 1795 392.093C1792.36 391.884 1789.61 391.975 1787 392.468M1492 413.653C1479.39 417.612 1477.68 438.492 1484.65 447.956C1489.77 454.913 1501.31 455.53 1508.98 452.941C1515.58 450.716 1515.31 442.9 1514.91 437C1514.07 424.668 1507.35 408.832 1492 413.653z"/>
</svg>
